<svg xmlns="http://www.w3.org/2000/svg" viewBox="0 0 1200 760" width="1200" height="760">
  <style>
    text { font-family: 'Helvetica Neue', Helvetica, Arial, 'PingFang SC', 'Microsoft YaHei', sans-serif; }
    .title { font-size: 24px; font-weight: 700; fill: #111827; }
    .subtitle { font-size: 13px; fill: #6b7280; }
    .lane { fill-opacity: 0.08; stroke-width: 1.2; stroke-dasharray: 7 5; rx: 12; }
    .lane-label { font-size: 12px; font-weight: 700; fill: #374151; letter-spacing: .04em; }
    .node-title { font-size: 14px; font-weight: 700; fill: #111827; }
    .node-sub { font-size: 11px; fill: #4b5563; }
    .small { font-size: 10.5px; fill: #6b7280; }
    .badge { font-size: 10px; font-weight: 700; }
  </style>
  <defs>
    <marker id="arrow-blue" markerWidth="10" markerHeight="7" refX="9" refY="3.5" orient="auto">
      <polygon points="0 0, 10 3.5, 0 7" fill="#2563eb"/>
    </marker>
    <marker id="arrow-green" markerWidth="10" markerHeight="7" refX="9" refY="3.5" orient="auto">
      <polygon points="0 0, 10 3.5, 0 7" fill="#059669"/>
    </marker>
    <marker id="arrow-orange" markerWidth="10" markerHeight="7" refX="9" refY="3.5" orient="auto">
      <polygon points="0 0, 10 3.5, 0 7" fill="#ea580c"/>
    </marker>
    <marker id="arrow-purple" markerWidth="10" markerHeight="7" refX="9" refY="3.5" orient="auto">
      <polygon points="0 0, 10 3.5, 0 7" fill="#7c3aed"/>
    </marker>
    <marker id="arrow-gray" markerWidth="10" markerHeight="7" refX="9" refY="3.5" orient="auto">
      <polygon points="0 0, 10 3.5, 0 7" fill="#6b7280"/>
    </marker>
    <marker id="arrow-red" markerWidth="10" markerHeight="7" refX="9" refY="3.5" orient="auto">
      <polygon points="0 0, 10 3.5, 0 7" fill="#dc2626"/>
    </marker>
    <filter id="shadow" x="-10%" y="-10%" width="120%" height="130%">
      <feDropShadow dx="0" dy="2" stdDeviation="3" flood-color="#111827" flood-opacity="0.12"/>
    </filter>
  </defs>
  <rect width="1200" height="760" fill="#ffffff"/>
  <text x="40" y="42" class="title">?????????????? seed????????????</text>
  <text x="40" y="66" class="subtitle">?? libtv / TapNow ???????????????????????????????????????? ID-first ???????</text>
  <rect x="40" y="92" width="1120" height="150" class="lane" fill="#eff6ff" stroke="#93c5fd"/>
  <text x="56" y="116" class="lane-label">?????????/?????????????? prompt</text>
  <rect x="40" y="266" width="1120" height="238" class="lane" fill="#f0fdf4" stroke="#86efac"/>
  <text x="56" y="290" class="lane-label">??????Project Character Graph??????????</text>
  <rect x="40" y="528" width="1120" height="150" class="lane" fill="#fff7ed" stroke="#fdba74"/>
  <text x="56" y="552" class="lane-label">?????????????????????</text>
  <g filter="url(#shadow)">
    <rect x="70" y="130" width="170" height="82" rx="10" fill="#ffffff" stroke="#60a5fa" stroke-width="1.5"/>
    <rect x="82" y="142" width="42" height="22" rx="11" fill="#60a5fa" opacity="0.14"/>
    <text x="103" y="157" text-anchor="middle" class="badge" fill="#60a5fa">Canvas</text>
    <text x="134" y="158" class="node-title">??/????</text>
    <text x="86" y="182" class="node-sub">?????????</text>
    <text x="86" y="199" class="node-sub">?????????</text>
  </g>
  <g filter="url(#shadow)">
    <rect x="290" y="130" width="178" height="82" rx="10" fill="#ffffff" stroke="#60a5fa" stroke-width="1.5"/>
    <rect x="302" y="142" width="42" height="22" rx="11" fill="#60a5fa" opacity="0.14"/>
    <text x="323" y="157" text-anchor="middle" class="badge" fill="#60a5fa">3View</text>
    <text x="354" y="158" class="node-title">???????</text>
    <text x="306" y="182" class="node-sub">?/?/???????</text>
    <text x="306" y="199" class="node-sub">?????????</text>
  </g>
  <g filter="url(#shadow)">
    <rect x="520" y="130" width="182" height="82" rx="10" fill="#ffffff" stroke="#60a5fa" stroke-width="1.5"/>
    <rect x="532" y="142" width="42" height="22" rx="11" fill="#60a5fa" opacity="0.14"/>
    <text x="553" y="157" text-anchor="middle" class="badge" fill="#60a5fa">Refs</text>
    <text x="584" y="158" class="node-title">??????</text>
    <text x="536" y="182" class="node-sub">??????????</text>
    <text x="536" y="199" class="node-sub">????/????</text>
  </g>
  <g filter="url(#shadow)">
    <rect x="752" y="130" width="178" height="82" rx="10" fill="#ffffff" stroke="#60a5fa" stroke-width="1.5"/>
    <rect x="764" y="142" width="42" height="22" rx="11" fill="#60a5fa" opacity="0.14"/>
    <text x="785" y="157" text-anchor="middle" class="badge" fill="#60a5fa">I2V</text>
    <text x="816" y="158" class="node-title">???????</text>
    <text x="768" y="182" class="node-sub">??/??????</text>
    <text x="768" y="199" class="node-sub">??????</text>
  </g>
  <g filter="url(#shadow)">
    <rect x="980" y="130" width="145" height="82" rx="10" fill="#ffffff" stroke="#60a5fa" stroke-width="1.5"/>
    <rect x="992" y="142" width="42" height="22" rx="11" fill="#60a5fa" opacity="0.14"/>
    <text x="1013" y="157" text-anchor="middle" class="badge" fill="#60a5fa">TapTV</text>
    <text x="1044" y="158" class="node-title">????</text>
    <text x="996" y="182" class="node-sub">???? workflow</text>
    <text x="996" y="199" class="node-sub">???????</text>
  </g>
  <path d="M 240,171 L 290,171" fill="none" stroke="#2563eb" stroke-width="2" marker-end="url(#arrow-blue)"/>
  <rect x="242.0" y="154.0" width="46" height="18" rx="4" fill="#ffffff" opacity="0.95"/>
  <text x="265.0" y="167.0" text-anchor="middle" class="small">????</text>
  <path d="M 468,171 L 520,171" fill="none" stroke="#2563eb" stroke-width="2" marker-end="url(#arrow-blue)"/>
  <rect x="471.0" y="154.0" width="46" height="18" rx="4" fill="#ffffff" opacity="0.95"/>
  <text x="494.0" y="167.0" text-anchor="middle" class="small">????</text>
  <path d="M 702,171 L 752,171" fill="none" stroke="#2563eb" stroke-width="2" marker-end="url(#arrow-blue)"/>
  <rect x="704.0" y="154.0" width="46" height="18" rx="4" fill="#ffffff" opacity="0.95"/>
  <text x="727.0" y="167.0" text-anchor="middle" class="small">???</text>
  <path d="M 930,171 L 980,171" fill="none" stroke="#059669" stroke-width="2" marker-end="url(#arrow-green)"/>
  <rect x="932.0" y="154.0" width="46" height="18" rx="4" fill="#ffffff" opacity="0.95"/>
  <text x="955.0" y="167.0" text-anchor="middle" class="small">??</text>
  <g filter="url(#shadow)">
    <rect x="70" y="310" width="170" height="110" rx="10" fill="#ffffff" stroke="#22c55e" stroke-width="1.5"/>
    <rect x="82" y="322" width="42" height="22" rx="11" fill="#22c55e" opacity="0.14"/>
    <text x="103" y="337" text-anchor="middle" class="badge" fill="#22c55e">Input</text>
    <text x="134" y="338" class="node-title">Script Ingest</text>
    <text x="86" y="362" class="node-sub">??/??????</text>
    <text x="86" y="379" class="node-sub">??????/??</text>
    <text x="86" y="396" class="node-sub">???????</text>
  </g>
  <g filter="url(#shadow)">
    <rect x="285" y="310" width="190" height="110" rx="10" fill="#ffffff" stroke="#22c55e" stroke-width="1.5"/>
    <rect x="297" y="322" width="42" height="22" rx="11" fill="#22c55e" opacity="0.14"/>
    <text x="318" y="337" text-anchor="middle" class="badge" fill="#22c55e">Link</text>
    <text x="349" y="338" class="node-title">Role Linker</text>
    <text x="301" y="362" class="node-sub">name/alias + ????</text>
    <text x="301" y="379" class="node-sub">???????</text>
    <text x="301" y="396" class="node-sub">??????</text>
  </g>
  <g filter="url(#shadow)">
    <ellipse cx="590" cy="305" rx="90.0" ry="14" fill="#eff6ff" stroke="#2563eb" stroke-width="1.5"/>
    <rect x="500.0" y="305" width="180" height="105" fill="#eff6ff" stroke="none"/>
    <line x1="500.0" y1="305" x2="500.0" y2="410" stroke="#2563eb" stroke-width="1.5"/>
    <line x1="680.0" y1="305" x2="680.0" y2="410" stroke="#2563eb" stroke-width="1.5"/>
    <ellipse cx="590" cy="410" rx="90.0" ry="14" fill="#dbeafe" stroke="#2563eb" stroke-width="1.5"/>
    <text x="590" y="335" text-anchor="middle" class="node-title">Character Graph</text>
    <text x="590" y="355" text-anchor="middle" class="small">characterBibleId</text>
    <text x="590" y="370" text-anchor="middle" class="small">episodeCharacterId</text>
    <text x="590" y="385" text-anchor="middle" class="small">identitySeed</text>
  </g>
  <g filter="url(#shadow)">
    <rect x="805" y="310" width="160" height="110" rx="10" fill="#ffffff" stroke="#22c55e" stroke-width="1.5"/>
    <rect x="817" y="322" width="42" height="22" rx="11" fill="#22c55e" opacity="0.14"/>
    <text x="838" y="337" text-anchor="middle" class="badge" fill="#22c55e">Assets</text>
    <text x="869" y="338" class="node-title">Asset Vault</text>
    <text x="821" y="362" class="node-sub">??????????</text>
    <text x="821" y="379" class="node-sub">voice cast?????</text>
    <text x="821" y="396" class="node-sub">??? canonical refs</text>
  </g>
  <g filter="url(#shadow)">
    <rect x="1010" y="310" width="120" height="110" rx="10" fill="#ffffff" stroke="#22c55e" stroke-width="1.5"/>
    <rect x="1022" y="322" width="42" height="22" rx="11" fill="#22c55e" opacity="0.14"/>
    <text x="1043" y="337" text-anchor="middle" class="badge" fill="#22c55e">Bind</text>
    <text x="1074" y="338" class="node-title">Shot Binder</text>
    <text x="1026" y="362" class="node-sub">?????? ID</text>
    <text x="1026" y="379" class="node-sub">??????</text>
    <text x="1026" y="396" class="node-sub">?? referenceImages</text>
  </g>
  <path d="M 240,365 L 285,365" fill="none" stroke="#ea580c" stroke-width="2" marker-end="url(#arrow-orange)"/>
  <rect x="239.5" y="348.0" width="46" height="18" rx="4" fill="#ffffff" opacity="0.95"/>
  <text x="262.5" y="361.0" text-anchor="middle" class="small">????</text>
  <path d="M 475,365 L 500,365" fill="none" stroke="#059669" stroke-width="2" marker-end="url(#arrow-green)"/>
  <rect x="464.5" y="348.0" width="46" height="18" rx="4" fill="#ffffff" opacity="0.95"/>
  <text x="487.5" y="361.0" text-anchor="middle" class="small">??</text>
  <path d="M 680,365 L 805,365" fill="none" stroke="#059669" stroke-width="2" marker-end="url(#arrow-green)"/>
  <rect x="719.5" y="348.0" width="46" height="18" rx="4" fill="#ffffff" opacity="0.95"/>
  <text x="742.5" y="361.0" text-anchor="middle" class="small">??</text>
  <path d="M 965,365 L 1010,365" fill="none" stroke="#2563eb" stroke-width="2" marker-end="url(#arrow-blue)"/>
  <rect x="964.5" y="348.0" width="46" height="18" rx="4" fill="#ffffff" opacity="0.95"/>
  <text x="987.5" y="361.0" text-anchor="middle" class="small">??</text>
  <path d="M 865,420 C 840,470 690,480 610,420" fill="none" stroke="#059669" stroke-width="2" stroke-dasharray="5 4" marker-end="url(#arrow-green)"/>
  <rect x="727.0" y="453.0" width="46" height="18" rx="4" fill="#ffffff" opacity="0.95"/>
  <text x="750.0" y="466.0" text-anchor="middle" class="small">????</text>
  <g filter="url(#shadow)">
    <rect x="80" y="565" width="160" height="78" rx="10" fill="#ffffff" stroke="#f97316" stroke-width="1.5"/>
    <rect x="92" y="577" width="42" height="22" rx="11" fill="#f97316" opacity="0.14"/>
    <text x="113" y="592" text-anchor="middle" class="badge" fill="#f97316">Prompt</text>
    <text x="144" y="593" class="node-title">Prompt Builder</text>
    <text x="96" y="617" class="node-sub">ID-first ??????</text>
    <text x="96" y="634" class="node-sub">? canonical refs</text>
  </g>
  <g filter="url(#shadow)">
    <rect x="290" y="565" width="160" height="78" rx="10" fill="#ffffff" stroke="#f97316" stroke-width="1.5"/>
    <rect x="302" y="577" width="42" height="22" rx="11" fill="#f97316" opacity="0.14"/>
    <text x="323" y="592" text-anchor="middle" class="badge" fill="#f97316">Gen</text>
    <text x="354" y="593" class="node-title">Image / Video Gen</text>
    <text x="306" y="617" class="node-sub">seed ?????</text>
    <text x="306" y="634" class="node-sub">????????</text>
  </g>
  <g filter="url(#shadow)">
    <rect x="500" y="565" width="160" height="78" rx="10" fill="#ffffff" stroke="#f97316" stroke-width="1.5"/>
    <rect x="512" y="577" width="42" height="22" rx="11" fill="#f97316" opacity="0.14"/>
    <text x="533" y="592" text-anchor="middle" class="badge" fill="#f97316">QA</text>
    <text x="564" y="593" class="node-title">Consistency QA</text>
    <text x="516" y="617" class="node-sub">??/??/????</text>
    <text x="516" y="634" class="node-sub">???????</text>
  </g>
  <g filter="url(#shadow)">
    <rect x="710" y="565" width="170" height="78" rx="10" fill="#ffffff" stroke="#f97316" stroke-width="1.5"/>
    <rect x="722" y="577" width="42" height="22" rx="11" fill="#f97316" opacity="0.14"/>
    <text x="743" y="592" text-anchor="middle" class="badge" fill="#f97316">Regen</text>
    <text x="774" y="593" class="node-title">Reanchor Regen</text>
    <text x="726" y="617" class="node-sub">??????????</text>
    <text x="726" y="634" class="node-sub">?? best frame</text>
  </g>
  <g filter="url(#shadow)">
    <rect x="930" y="565" width="160" height="78" rx="10" fill="#ffffff" stroke="#f97316" stroke-width="1.5"/>
    <rect x="942" y="577" width="42" height="22" rx="11" fill="#f97316" opacity="0.14"/>
    <text x="963" y="592" text-anchor="middle" class="badge" fill="#f97316">Out</text>
    <text x="994" y="593" class="node-title">Episode Output</text>
    <text x="946" y="617" class="node-sub">?????????</text>
    <text x="946" y="634" class="node-sub">delivery summary</text>
  </g>
  <path d="M 240,604 L 290,604" fill="none" stroke="#2563eb" stroke-width="2" marker-end="url(#arrow-blue)"/>
  <rect x="242.0" y="587.0" width="46" height="18" rx="4" fill="#ffffff" opacity="0.95"/>
  <text x="265.0" y="600.0" text-anchor="middle" class="small">??</text>
  <path d="M 450,604 L 500,604" fill="none" stroke="#7c3aed" stroke-width="2" marker-end="url(#arrow-purple)"/>
  <rect x="452.0" y="587.0" width="46" height="18" rx="4" fill="#ffffff" opacity="0.95"/>
  <text x="475.0" y="600.0" text-anchor="middle" class="small">??</text>
  <path d="M 660,604 L 710,604" fill="none" stroke="#dc2626" stroke-width="2" marker-end="url(#arrow-red)"/>
  <rect x="662.0" y="587.0" width="46" height="18" rx="4" fill="#ffffff" opacity="0.95"/>
  <text x="685.0" y="600.0" text-anchor="middle" class="small">??</text>
  <path d="M 880,604 L 930,604" fill="none" stroke="#2563eb" stroke-width="2" marker-end="url(#arrow-blue)"/>
  <rect x="882.0" y="587.0" width="46" height="18" rx="4" fill="#ffffff" opacity="0.95"/>
  <text x="905.0" y="600.0" text-anchor="middle" class="small">??</text>
  <path d="M 795,565 C 760,510 590,505 580,565" fill="none" stroke="#059669" stroke-width="2" stroke-dasharray="5 4" marker-end="url(#arrow-green)"/>
  <rect x="638.5" y="495.0" width="103" height="18" rx="4" fill="#ffffff" opacity="0.95"/>
  <text x="690.0" y="508.0" text-anchor="middle" class="small">best frame ??</text>
  <path d="M 1080,565 C 1105,510 1045,455 1080,420" fill="none" stroke="#059669" stroke-width="2" stroke-dasharray="5 4" marker-end="url(#arrow-green)"/>
  <rect x="1082.0" y="473.0" width="46" height="18" rx="4" fill="#ffffff" opacity="0.95"/>
  <text x="1105.0" y="486.0" text-anchor="middle" class="small">????</text>
  <path d="M 1080,420 C 1130,475 1125,548 1090,590" fill="none" stroke="#2563eb" stroke-width="2" marker-end="url(#arrow-blue)"/>
  <rect x="1106.5" y="498.0" width="47" height="18" rx="4" fill="#ffffff" opacity="0.95"/>
  <text x="1130.0" y="511.0" text-anchor="middle" class="small">?????</text>
  <g>
    <rect x="70" y="700" width="785" height="38" rx="8" fill="#f9fafb" stroke="#e5e7eb"/>
    <text x="88" y="724" class="node-sub">???????????? episodeCharacter???/???????? characterBibleId???? canonical refs??? seed ?????????????</text>
  </g>
  <g transform="translate(900,690)">
    <line x1="0" y1="6" x2="30" y2="6" stroke="#2563eb" stroke-width="2" marker-end="url(#arrow-blue)"/>
    <text x="38" y="10" class="small">????</text>
    <line x1="0" y1="24" x2="30" y2="24" stroke="#059669" stroke-width="2" marker-end="url(#arrow-green)"/>
    <text x="38" y="28" class="small">????</text>
    <line x1="0" y1="42" x2="30" y2="42" stroke="#ea580c" stroke-width="2" marker-end="url(#arrow-orange)"/>
    <text x="38" y="46" class="small">??/??</text>
    <line x1="0" y1="60" x2="30" y2="60" stroke="#dc2626" stroke-width="2" marker-end="url(#arrow-red)"/>
    <text x="38" y="64" class="small">????</text>
  </g>
</svg>