<svg xmlns="http://www.w3.org/2000/svg" viewBox="0 0 1200 760" width="1200" height="760">
<defs>
<marker id="arrow-blue" markerWidth="10" markerHeight="7" refX="9" refY="3.5" orient="auto"><polygon points="0 0, 10 3.5, 0 7" fill="#2563eb"/></marker>
<marker id="arrow-green" markerWidth="10" markerHeight="7" refX="9" refY="3.5" orient="auto"><polygon points="0 0, 10 3.5, 0 7" fill="#16a34a"/></marker>
<marker id="arrow-orange" markerWidth="10" markerHeight="7" refX="9" refY="3.5" orient="auto"><polygon points="0 0, 10 3.5, 0 7" fill="#ea580c"/></marker>
<marker id="arrow-purple" markerWidth="10" markerHeight="7" refX="9" refY="3.5" orient="auto"><polygon points="0 0, 10 3.5, 0 7" fill="#9333ea"/></marker>
<marker id="arrow-red" markerWidth="10" markerHeight="7" refX="9" refY="3.5" orient="auto"><polygon points="0 0, 10 3.5, 0 7" fill="#dc2626"/></marker>
<marker id="arrow-gray" markerWidth="10" markerHeight="7" refX="9" refY="3.5" orient="auto"><polygon points="0 0, 10 3.5, 0 7" fill="#6b7280"/></marker>
<filter id="shadow" x="-10%" y="-10%" width="120%" height="130%"><feDropShadow dx="0" dy="2" stdDeviation="3" flood-color="#111827" flood-opacity="0.12"/></filter></defs>
<style>text{font-family:'Microsoft YaHei','SimSun','DengXian','Arial',sans-serif;fill:#111827} .sub{fill:#6b7280;font-size:12px} .label{font-weight:700;font-size:14px} .small{fill:#6b7280;font-size:11px} .title{font-size:22px;font-weight:700} .subtitle{font-size:13px;fill:#6b7280}</style>
<rect width="1200" height="760" fill="#ffffff"/>
<text x="40" y="42" class="title">AI-video-factory-pro &#x8FDE;&#x8D2F;&#x6027;&#x67B6;&#x6784;</text>
<text x="40" y="66" class="subtitle">&#x89C4;&#x5219;/QA &#x9A71;&#x52A8;&#x7684;&#x81EA;&#x52A8;&#x5316;&#x751F;&#x4EA7;&#x7EBF;&#xFF1A;&#x5148;&#x53D1;&#x73B0;&#x98CE;&#x9669;&#xFF0C;&#x518D;&#x7528; bridge/sequence/composer &#x63A7;&#x5236;&#x6700;&#x7EC8;&#x65F6;&#x95F4;&#x7EBF;</text>
<rect x="25" y="90" width="1150" height="220" rx="10" fill="#2563eb" fill-opacity="0.08" stroke="#2563eb" stroke-width="1.2" stroke-dasharray="6,4"/>
<text x="39" y="112" fill="#2563eb" font-size="11" font-weight="700">&#x89C4;&#x5212;&#x4E0E;&#x524D;&#x7F6E; QA</text>
<rect x="25" y="295" width="1150" height="285" rx="10" fill="#9333ea" fill-opacity="0.08" stroke="#9333ea" stroke-width="1.2" stroke-dasharray="6,4"/>
<text x="39" y="317" fill="#9333ea" font-size="11" font-weight="700">&#x751F;&#x6210;&#x3001;&#x4FEE;&#x590D;&#x3001;&#x5408;&#x6210;&#x4E0E;&#x8BC1;&#x636E;</text>
<path d="M 180,168.0 C 205.0,168.0 205.0,168.0 230,168.0" fill="none" stroke="#2563eb" stroke-width="2" marker-end="url(#arrow-blue)"/>
<rect x="170.5" y="147.0" width="69" height="18" rx="4" fill="#ffffff" opacity="0.96"/>
<text x="205.0" y="160.0" text-anchor="middle" class="small">shots</text>
<path d="M 375,168.0 C 397.5,168.0 397.5,136.0 420,136.0" fill="none" stroke="#16a34a" stroke-width="2" marker-end="url(#arrow-green)"/>
<rect x="357.5" y="131.0" width="80" height="18" rx="4" fill="#ffffff" opacity="0.96"/>
<text x="397.5" y="144.0" text-anchor="middle" class="small">images</text>
<path d="M 375,168.0 C 397.5,168.0 397.5,254.0 420,254.0" fill="none" stroke="#16a34a" stroke-width="2" marker-end="url(#arrow-green)"/>
<rect x="363.0" y="190.0" width="69" height="18" rx="4" fill="#ffffff" opacity="0.96"/>
<text x="397.5" y="203.0" text-anchor="middle" class="small">pairs</text>
<path d="M 570,254.0 C 602.5,254.0 602.5,168.0 635,168.0" fill="none" stroke="#ea580c" stroke-width="2" marker-end="url(#arrow-orange)"/>
<rect x="557.0" y="190.0" width="91" height="18" rx="4" fill="#ffffff" opacity="0.96"/>
<text x="602.5" y="203.0" text-anchor="middle" class="small">context</text>
<path d="M 780,168.0 C 807.5,168.0 807.5,168.0 835,168.0" fill="none" stroke="#2563eb" stroke-width="2" marker-end="url(#arrow-blue)"/>
<rect x="778.5" y="147.0" width="58" height="18" rx="4" fill="#ffffff" opacity="0.96"/>
<text x="807.5" y="160.0" text-anchor="middle" class="small">plan</text>
<path d="M 980,168.0 C 1002.5,168.0 1002.5,168.0 1025,168.0" fill="none" stroke="#2563eb" stroke-width="2" marker-end="url(#arrow-blue)"/>
<rect x="951.5" y="147.0" width="102" height="18" rx="4" fill="#ffffff" opacity="0.96"/>
<text x="1002.5" y="160.0" text-anchor="middle" class="small">packages</text>
<path d="M 1160,168.0 C 695.0,168.0 695.0,411.0 230,411.0" fill="none" stroke="#2563eb" stroke-width="2" marker-end="url(#arrow-blue)"/>
<rect x="644.0" y="268.5" width="102" height="18" rx="4" fill="#ffffff" opacity="0.96"/>
<text x="695.0" y="281.5" text-anchor="middle" class="small">generate</text>
<path d="M 380,411.0 C 400.0,411.0 400.0,411.0 420,411.0" fill="none" stroke="#16a34a" stroke-width="2" marker-end="url(#arrow-green)"/>
<rect x="349.0" y="390.0" width="102" height="18" rx="4" fill="#ffffff" opacity="0.96"/>
<text x="400.0" y="403.0" text-anchor="middle" class="small">video qa</text>
<path d="M 570,411.0 C 602.5,411.0 602.5,360.0 635,360.0" fill="none" stroke="#ea580c" stroke-width="2" marker-end="url(#arrow-orange)"/>
<rect x="546.0" y="364.5" width="113" height="18" rx="4" fill="#ffffff" opacity="0.96"/>
<text x="602.5" y="377.5" text-anchor="middle" class="small">risk cuts</text>
<path d="M 570,254.0 C 602.5,254.0 602.5,360.0 635,360.0" fill="none" stroke="#dc2626" stroke-width="2" marker-end="url(#arrow-red)"/>
<rect x="557.0" y="286.0" width="91" height="18" rx="4" fill="#ffffff" opacity="0.96"/>
<text x="602.5" y="299.0" text-anchor="middle" class="small">flagged</text>
<path d="M 790,360.0 C 712.5,360.0 712.5,500.0 635,500.0" fill="none" stroke="#ea580c" stroke-width="2" marker-end="url(#arrow-orange)"/>
<rect x="661.5" y="409.0" width="102" height="18" rx="4" fill="#ffffff" opacity="0.96"/>
<text x="712.5" y="422.0" text-anchor="middle" class="small">boundary</text>
<path d="M 570,411.0 C 602.5,411.0 602.5,500.0 635,500.0" fill="none" stroke="#ea580c" stroke-width="2" marker-end="url(#arrow-orange)"/>
<rect x="546.0" y="434.5" width="113" height="18" rx="4" fill="#ffffff" opacity="0.96"/>
<text x="602.5" y="447.5" text-anchor="middle" class="small">good refs</text>
<path d="M 790,500.0 C 830.0,500.0 830.0,430.0 870,430.0" fill="none" stroke="#2563eb" stroke-width="2" marker-end="url(#arrow-blue)"/>
<rect x="779.0" y="444.0" width="102" height="18" rx="4" fill="#ffffff" opacity="0.96"/>
<text x="830.0" y="457.0" text-anchor="middle" class="small">approved</text>
<path d="M 570,411.0 C 720.0,411.0 720.0,430.0 870,430.0" fill="none" stroke="#2563eb" stroke-width="2" marker-end="url(#arrow-blue)"/>
<rect x="685.5" y="399.5" width="69" height="18" rx="4" fill="#ffffff" opacity="0.96"/>
<text x="720.0" y="412.5" text-anchor="middle" class="small">shots</text>
<path d="M 790,360.0 C 830.0,360.0 830.0,430.0 870,430.0" fill="none" stroke="#9333ea" stroke-width="2" stroke-dasharray="5,4" marker-end="url(#arrow-purple)"/>
<rect x="773.5" y="374.0" width="113" height="18" rx="4" fill="#ffffff" opacity="0.96"/>
<text x="830.0" y="387.0" text-anchor="middle" class="small">pass only</text>
<path d="M 947.5,480 C 1027.5,480 1027.5,380 1107.5,380" fill="none" stroke="#6b7280" stroke-width="2" stroke-dasharray="5,4" marker-end="url(#arrow-gray)"/>
<rect x="982.0" y="409.0" width="91" height="18" rx="4" fill="#ffffff" opacity="0.96"/>
<text x="1027.5" y="422.0" text-anchor="middle" class="small">metrics</text>
<rect x="40" y="130" width="140" height="76" rx="8" fill="#eff6ff" stroke="#bfdbfe" stroke-width="1.6" filter="url(#shadow)"/>
<text x="110.0" y="155" text-anchor="middle" class="label">Script Parser</text>
<text x="110.0" y="176" text-anchor="middle" class="sub">&#x5267;&#x672C; -> shots</text>
<text x="110.0" y="192" text-anchor="middle" class="sub">&#x89D2;&#x8272;/&#x573A;&#x666F;/&#x5BF9;&#x767D;</text>
<rect x="230" y="130" width="145" height="76" rx="8" fill="#eff6ff" stroke="#bfdbfe" stroke-width="1.6" filter="url(#shadow)"/>
<text x="302.5" y="155" text-anchor="middle" class="label">Image Generator</text>
<text x="302.5" y="176" text-anchor="middle" class="sub">&#x5173;&#x952E;&#x5E27;&#x751F;&#x6210;</text>
<text x="302.5" y="192" text-anchor="middle" class="sub">prompt refs</text>
<rect x="420" y="100" width="150" height="72" rx="8" fill="#f0fdf4" stroke="#bbf7d0" stroke-width="1.6" filter="url(#shadow)"/>
<text x="495.0" y="125" text-anchor="middle" class="label">Consistency QA</text>
<text x="495.0" y="146" text-anchor="middle" class="sub">&#x89D2;&#x8272;&#x5916;&#x89C2;&#x4E00;&#x81F4;</text>
<text x="495.0" y="162" text-anchor="middle" class="sub">regen strategy</text>
<rect x="420" y="210" width="150" height="88" rx="8" fill="#f0fdf4" stroke="#bbf7d0" stroke-width="1.6" filter="url(#shadow)"/>
<text x="495.0" y="235" text-anchor="middle" class="label">Continuity QA</text>
<text x="495.0" y="256" text-anchor="middle" class="sub">contract + soft review</text>
<text x="495.0" y="272" text-anchor="middle" class="sub">flagged transitions</text>
<text x="495.0" y="288" text-anchor="middle" class="sub">repair-plan</text>
<rect x="635" y="130" width="145" height="76" rx="8" fill="#fff7ed" stroke="#fed7aa" stroke-width="1.6" filter="url(#shadow)"/>
<text x="707.5" y="155" text-anchor="middle" class="label">Motion Planner</text>
<text x="707.5" y="176" text-anchor="middle" class="sub">&#x955C;&#x5934;&#x8FD0;&#x52A8;&#x89C4;&#x5212;</text>
<text x="707.5" y="192" text-anchor="middle" class="sub">continuity context</text>
<rect x="835" y="130" width="145" height="76" rx="8" fill="#fff7ed" stroke="#fed7aa" stroke-width="1.6" filter="url(#shadow)"/>
<text x="907.5" y="155" text-anchor="middle" class="label">Performance</text>
<text x="907.5" y="176" text-anchor="middle" class="sub">&#x52A8;&#x4F5C;&#x8282;&#x62CD;</text>
<text x="907.5" y="192" text-anchor="middle" class="sub">&#x751F;&#x6210;&#x5C42;&#x7EA7;</text>
<rect x="1025" y="130" width="135" height="76" rx="8" fill="#fff7ed" stroke="#fed7aa" stroke-width="1.6" filter="url(#shadow)"/>
<text x="1092.5" y="155" text-anchor="middle" class="label">Video Router</text>
<text x="1092.5" y="176" text-anchor="middle" class="sub">shot packages</text>
<text x="1092.5" y="192" text-anchor="middle" class="sub">refs + hints</text>
<rect x="230" y="370" width="150" height="82" rx="8" fill="#faf5ff" stroke="#e9d5ff" stroke-width="1.6" filter="url(#shadow)"/>
<text x="305.0" y="395" text-anchor="middle" class="label">Shot Video</text>
<text x="305.0" y="416" text-anchor="middle" class="sub">&#x5355;&#x955C;&#x5934;&#x89C6;&#x9891;</text>
<text x="305.0" y="432" text-anchor="middle" class="sub">&#x7EDF;&#x4E00; provider</text>
<rect x="420" y="370" width="150" height="82" rx="8" fill="#f0fdf4" stroke="#bbf7d0" stroke-width="1.6" filter="url(#shadow)"/>
<text x="495.0" y="395" text-anchor="middle" class="label">Shot QA</text>
<text x="495.0" y="416" text-anchor="middle" class="sub">&#x53EF;&#x7528;&#x6027;&#x5224;&#x65AD;</text>
<text x="495.0" y="432" text-anchor="middle" class="sub">manual review</text>
<rect x="635" y="315" width="155" height="90" rx="8" fill="#faf5ff" stroke="#e9d5ff" stroke-width="1.6" filter="url(#shadow)"/>
<text x="712.5" y="340" text-anchor="middle" class="label">Bridge Chain</text>
<text x="712.5" y="361" text-anchor="middle" class="sub">&#x9AD8;&#x98CE;&#x9669; cut</text>
<text x="712.5" y="377" text-anchor="middle" class="sub">&#x6BB5;&#x95F4;&#x8865;&#x6865;</text>
<text x="712.5" y="393" text-anchor="middle" class="sub">Bridge QA</text>
<rect x="635" y="455" width="155" height="90" rx="8" fill="#faf5ff" stroke="#e9d5ff" stroke-width="1.6" filter="url(#shadow)"/>
<text x="712.5" y="480" text-anchor="middle" class="label">Sequence Chain</text>
<text x="712.5" y="501" text-anchor="middle" class="sub">&#x8FDE;&#x7EED;&#x52A8;&#x4F5C;&#x6BB5;</text>
<text x="712.5" y="517" text-anchor="middle" class="sub">entry/exit &#x7EA6;&#x675F;</text>
<text x="712.5" y="533" text-anchor="middle" class="sub">Sequence QA</text>
<rect x="870" y="380" width="155" height="100" rx="8" fill="#ecfeff" stroke="#99f6e4" stroke-width="1.6" filter="url(#shadow)"/>
<text x="947.5" y="405" text-anchor="middle" class="label">Video Composer</text>
<text x="947.5" y="426" text-anchor="middle" class="sub">sequence > shot</text>
<text x="947.5" y="442" text-anchor="middle" class="sub">> bridge > lipsync</text>
<text x="947.5" y="458" text-anchor="middle" class="sub">> image fallback</text>
<rect x="1045" y="380" width="125" height="100" rx="8" fill="#f9fafb" stroke="#d1d5db" stroke-width="1.6" filter="url(#shadow)"/>
<text x="1107.5" y="405" text-anchor="middle" class="label">Run Artifacts</text>
<text x="1107.5" y="426" text-anchor="middle" class="sub">qa-overview</text>
<text x="1107.5" y="442" text-anchor="middle" class="sub">metrics</text>
<text x="1107.5" y="458" text-anchor="middle" class="sub">evidence</text>
<rect x="28" y="664" width="500" height="62" rx="8" fill="#f9fafb" stroke="#e5e7eb"/>
<line x1="40" y1="686" x2="74" y2="686" stroke="#2563eb" stroke-width="2" marker-end="url(#arrow-blue)"/>
<text x="84" y="690" class="small">&#x4E3B;&#x6570;&#x636E;&#x6D41;</text>
<line x1="40" y1="704" x2="74" y2="704" stroke="#16a34a" stroke-width="2" marker-end="url(#arrow-green)"/>
<text x="84" y="708" class="small">QA/&#x9A8C;&#x6536;</text>
<line x1="40" y1="722" x2="74" y2="722" stroke="#dc2626" stroke-width="2" marker-end="url(#arrow-red)"/>
<text x="84" y="726" class="small">&#x98CE;&#x9669;&#x89E6;&#x53D1;/&#x4FEE;&#x590D;</text>
<line x1="40" y1="740" x2="74" y2="740" stroke="#9333ea" stroke-width="2" stroke-dasharray="5,4" marker-end="url(#arrow-purple)"/>
<text x="84" y="744" class="small">&#x56DE;&#x9000;/&#x8BC1;&#x636E;</text>
</svg>